<svg width="117" height="23" viewBox="0 0 117 23" fill="none" xmlns="http://www.w3.org/2000/svg">
<path fill-rule="evenodd" clip-rule="evenodd" d="M115.316 20.0764C116.111 20.0764 116.744 20.7043 116.744 21.4914C116.744 22.2874 116.111 22.9064 115.309 22.9064C114.515 22.9064 113.87 22.2874 113.87 21.4914C113.87 20.7043 114.515 20.0764 115.309 20.0764H115.316ZM23.3761 22.7171H19.4415L19.2739 21.7532C17.4761 22.7171 15.8731 22.8746 14.8166 22.8746C11.9295 22.8746 10.394 21.0068 10.394 18.4209C10.394 15.3716 12.1863 14.2821 15.3923 14.2821H18.6528V13.6241C18.6528 12.0677 18.4707 11.6113 15.9934 11.6113H11.9696L12.3649 7.79089H16.7784C22.1921 7.79089 23.3797 9.45349 23.3797 13.656V22.7171H23.3761ZM81.9931 16.7265C81.9931 19.8394 80.6689 22.8586 75.1259 22.8586C69.5775 22.8586 68.2278 19.8394 68.2278 16.7265V13.7197C68.2278 10.6067 69.5757 7.58749 75.1241 7.58749C80.6798 7.58749 82.0095 10.6067 82.0095 13.7214V16.7283L81.9931 16.7265ZM97.1083 16.7265C97.1083 19.8394 95.7822 22.8586 90.2411 22.8586C84.6908 22.8586 83.3411 19.8394 83.3411 16.7265V13.7197C83.3411 10.6067 84.689 7.58749 90.2393 7.58749C95.7767 7.58749 97.1064 10.6067 97.1064 13.7214V16.7283L97.1083 16.7265ZM115.309 20.2993C114.672 20.2993 114.143 20.8299 114.143 21.4897C114.143 22.1618 114.672 22.6889 115.316 22.6889C115.963 22.7065 116.482 22.1759 116.482 21.5038C116.482 20.8494 115.963 20.3152 115.316 20.3152H115.309V20.2993ZM7.24451 22.6871H2.52673V11.6149H0.166016V7.79443H2.52491V5.50393C2.52491 2.39098 3.85463 0.537353 7.63979 0.537353H10.791V4.3578H8.82378C7.34834 4.3578 7.24998 4.88841 7.24998 5.88597L7.23176 7.7962H10.802L10.383 11.6166H7.23358V22.6889L7.24451 22.6871ZM115.038 22.3157H114.779V20.7362C114.925 20.7185 115.052 20.7008 115.253 20.7008C115.502 20.7008 115.664 20.7486 115.763 20.8175C115.861 20.8883 115.908 20.9944 115.908 21.1448C115.908 21.3517 115.77 21.4773 115.599 21.5286V21.5409C115.737 21.5657 115.835 21.6895 115.872 21.923C115.908 22.1671 115.945 22.2626 115.97 22.3121H115.697C115.661 22.2626 115.619 22.1176 115.588 21.9124C115.551 21.709 115.442 21.6347 115.238 21.6347H115.056V22.3139L115.038 22.3157ZM115.038 21.4401H115.225C115.438 21.4401 115.619 21.3641 115.619 21.1695C115.619 21.0316 115.517 20.8936 115.225 20.8936C115.141 20.8936 115.08 20.8989 115.038 20.906V21.4401ZM15.1136 18.3626C15.1136 19.1974 15.5216 19.6307 16.4178 19.6307C17.3832 19.6307 17.9515 19.3265 18.6546 19.0117V17.3402H16.5489C15.5507 17.3402 15.1136 17.5171 15.1136 18.3608V18.3626ZM60.1821 11.4009C59.2166 11.4009 58.5244 11.7015 57.8213 12.0199V19.0594C58.4953 19.1213 58.8815 19.1213 59.5226 19.1213C61.836 19.1213 62.1493 18.0955 62.1493 16.6628V13.2952C62.1493 12.241 61.785 11.3902 60.1821 11.3902V11.4009ZM75.1096 11.4009C73.503 11.4009 72.9474 12.2498 72.9474 13.2934V17.1492C72.9474 18.2104 73.503 19.0594 75.1096 19.0594C76.7125 19.0594 77.2699 18.2104 77.2699 17.1492V13.2934C77.2699 12.2392 76.7052 11.3885 75.1023 11.3885L75.1096 11.4009ZM36.7534 11.8784C34.3053 11.4716 33.6022 11.3832 32.4255 11.3832C30.3088 11.3832 29.6695 11.8307 29.6695 13.5764V16.8662C29.6695 18.6084 30.307 19.0594 32.4255 19.0594C33.604 19.0594 34.3053 18.971 36.7534 18.5642V22.2856C34.6095 22.7543 33.2124 22.8763 32.032 22.8763C26.9645 22.8763 24.9499 20.294 24.9499 16.562V13.8912C24.9499 10.1521 26.9645 7.56449 32.032 7.56449C33.2124 7.56449 34.6095 7.6883 36.7534 8.15702V11.8784ZM51.5261 16.5655H42.8702V16.8662C42.8702 18.6084 43.5077 19.0594 45.6243 19.0594C47.5278 19.0594 48.6845 18.971 51.129 18.5642V22.2856C48.7738 22.7543 47.546 22.8763 45.2327 22.8763C40.1688 22.8763 38.1651 20.294 38.1651 16.562V13.5021C38.1651 10.2353 39.6588 7.55919 44.8502 7.55919C50.0507 7.55919 51.5352 10.2034 51.5352 13.5021V16.562L51.5261 16.5655ZM90.2228 11.4009C88.6199 11.4009 88.0643 12.2498 88.0643 13.2987V17.1598C88.0643 18.2211 88.6199 19.07 90.2228 19.07C91.8258 19.07 92.3905 18.2211 92.3905 17.1598V13.2969C92.3905 12.241 91.8258 11.3902 90.2228 11.3902V11.4009ZM112.622 22.6853H107.509L103.181 15.6812V22.6853H98.4635V1.67818L103.181 0.917629V14.4395L107.507 7.78912H112.608L107.881 15.0409L112.604 22.6818L112.622 22.6853ZM44.8374 11.0117C43.2345 11.0117 42.8702 11.8607 42.8702 12.922V13.5109H46.8047V12.9167C46.8047 11.8731 46.4404 11.017 44.8374 11.017V11.0117ZM66.8707 16.6363C66.8707 20.2445 65.796 22.8799 59.3478 22.8799C57.0235 22.8799 55.6573 22.6782 53.089 22.2962V1.67464L57.8068 0.914092V8.12518C58.8268 7.75728 60.1474 7.57157 61.3497 7.57157C66.0674 7.57157 66.8507 9.62329 66.8507 12.9184V16.6504L66.8707 16.6363Z" fill="#D6DAE5"/>
</svg>
